<svg width="560" height="280" viewBox="0 0 560 280" fill="none" xmlns="http://www.w3.org/2000/svg">
  <rect width="560" height="280" rx="24" fill="#221D1C"/>
  <rect x="34" y="44" width="180" height="192" rx="20" fill="#FCFAF8"/>
  <rect x="58" y="68" width="132" height="100" rx="14" fill="#EDE6DE"/>
  <path d="M58 155L92 123L122 146L145 132L190 168" fill="#D71920" fill-opacity="0.18"/>
  <path d="M58 155L92 123L122 146L145 132L190 168" stroke="#D71920" stroke-width="6" stroke-linecap="round" stroke-linejoin="round"/>
  <circle cx="105" cy="106" r="12" fill="#D71920"/>
  <rect x="58" y="186" width="90" height="12" rx="6" fill="#D8D0C7"/>
  <rect x="58" y="206" width="120" height="12" rx="6" fill="#E7E0D8"/>
  <rect x="260" y="58" width="264" height="42" rx="16" fill="#D71920"/>
  <rect x="260" y="118" width="208" height="16" rx="8" fill="#F0E8DE"/>
  <rect x="260" y="148" width="228" height="16" rx="8" fill="#D8D0C7"/>
  <rect x="260" y="178" width="174" height="16" rx="8" fill="#D8D0C7"/>
  <circle cx="483" cy="194" r="41" fill="#2D2624"/>
  <path d="M469 193L479 203L500 181" stroke="#F5EEE7" stroke-width="9" stroke-linecap="round" stroke-linejoin="round"/>
</svg>
